<svg viewBox="0 0 100 100" fill="none" xmlns="http://www.w3.org/2000/svg" overflow="visible" width="200" height="200">
  <!-- Body -->
  <path
    d="M20 40C20 20 40 10 55 10C75 10 85 25 85 45C85 70 75 90 50 90C25 90 15 75 15 55C15 50 18 45 20 40Z"
    fill="#FDEE88"
    stroke="black"
    stroke-width="4"
    filter="drop-shadow(4px 4px 0px black)"
  />

  <!-- Left Eye -->
  <circle cx="40" cy="45" r="10" fill="white" stroke="black" stroke-width="3"/>
  <circle cx="42" cy="40" r="4" fill="black"/>
  <circle cx="45" cy="38" r="1.5" fill="white"/>

  <!-- Right Eye -->
  <circle cx="65" cy="48" r="12" fill="white" stroke="black" stroke-width="3"/>
  <circle cx="67" cy="42" r="5" fill="black"/>
  <circle cx="71" cy="40" r="2" fill="white"/>

  <!-- Mouth (neutral) -->
  <ellipse cx="45" cy="65" rx="4" ry="6" fill="black"/>

  <!-- Sparkle -->
  <path d="M75 25L78 32L85 35L78 38L75 45L72 38L65 35L72 32L75 25Z" fill="white"/>
</svg>
